<svg xmlns="http://www.w3.org/2000/svg" xml:space="preserve" viewBox="0 0 232 232"><path fill="#FFF" d="M0 0h232v232H0z"/><path d="M88 16h8v8h-8zm8 0h8v8h-8zm24 0h8v8h-8zm8 0h8v8h-8zm8 0h8v8h-8zm-56 8h8v8h-8zm24 0h8v8h-8zm24 0h8v8h-8zm8 0h8v8h-8zm-32 8h8v8h-8zm8 0h8v8h-8zm-24 8h8v8h-8zm24 0h8v8h-8zm16 0h8v8h-8zm8 0h8v8h-8zm-56 8h8v8h-8zm16 0h8v8h-8zm8 0h8v8h-8zm8 0h8v8h-8zm8 0h8v8h-8zm8 0h8v8h-8zm8 0h8v8h-8zm-40 8h8v8h-8zm32 0h8v8h-8zm8 0h8v8h-8zm8 0h8v8h-8zm-64 8h8v8h-8zm16 0h8v8h-8zm16 0h8v8h-8zm16 0h8v8h-8zm16 0h8v8h-8zm-40 8h8v8h-8zm16 0h8v8h-8zm24 0h8v8h-8zM16 80h8v8h-8zm16 0h8v8h-8zm16 0h8v8h-8zm16 0h8v8h-8zm24 0h8v8h-8zm32 0h8v8h-8zm16 0h8v8h-8zm8 0h8v8h-8zm32 0h8v8h-8zm24 0h8v8h-8zM16 88h8v8h-8zm8 0h8v8h-8zm24 0h8v8h-8zm24 0h8v8h-8zm8 0h8v8h-8zm40 0h8v8h-8zm32 0h8v8h-8zm8 0h8v8h-8zm48 0h8v8h-8zM32 96h8v8h-8zm32 0h8v8h-8zm8 0h8v8h-8zm8 0h8v8h-8zm8 0h8v8h-8zm16 0h8v8h-8zm8 0h8v8h-8zm16 0h8v8h-8zm40 0h8v8h-8zm24 0h8v8h-8zm8 0h8v8h-8zm8 0h8v8h-8zm-184 8h8v8h-8zm16 0h8v8h-8zm16 0h8v8h-8zm24 0h8v8h-8zm40 0h8v8h-8zm8 0h8v8h-8zm16 0h8v8h-8zm24 0h8v8h-8zm8 0h8v8h-8zm24 0h8v8h-8zm-184 8h8v8h-8zm16 0h8v8h-8zm8 0h8v8h-8zm8 0h8v8h-8zm8 0h8v8h-8zm8 0h8v8h-8zm16 0h8v8h-8zm24 0h8v8h-8zm16 0h8v8h-8zm16 0h8v8h-8zm8 0h8v8h-8zm8 0h8v8h-8zm8 0h8v8h-8zm24 0h8v8h-8zm16 0h8v8h-8zm8 0h8v8h-8zm-176 8h8v8h-8zm8 0h8v8h-8zm16 0h8v8h-8zm16 0h8v8h-8zm8 0h8v8h-8zm8 0h8v8h-8zm8 0h8v8h-8zm8 0h8v8h-8zm16 0h8v8h-8zm8 0h8v8h-8zm16 0h8v8h-8zm16 0h8v8h-8zm24 0h8v8h-8zm24 0h8v8h-8zm-192 8h8v8h-8zm16 0h8v8h-8zm16 0h8v8h-8zm8 0h8v8h-8zm8 0h8v8h-8zm32 0h8v8h-8zm72 0h8v8h-8zm8 0h8v8h-8zm16 0h8v8h-8zm8 0h8v8h-8zm8 0h8v8h-8zm-184 8h8v8h-8zm16 0h8v8h-8zm40 0h8v8h-8zm8 0h8v8h-8zm16 0h8v8h-8zm16 0h8v8h-8zm24 0h8v8h-8zm40 0h8v8h-8zm16 0h8v8h-8zm-184 8h8v8h-8zm16 0h8v8h-8zm8 0h8v8h-8zm24 0h8v8h-8zm8 0h8v8h-8zm16 0h8v8h-8zm8 0h8v8h-8zm16 0h8v8h-8zm8 0h8v8h-8zm16 0h8v8h-8zm8 0h8v8h-8zm8 0h8v8h-8zm8 0h8v8h-8zm8 0h8v8h-8zm8 0h8v8h-8zm8 0h8v8h-8zm-104 8h8v8h-8zm24 0h8v8h-8zm8 0h8v8h-8zm8 0h8v8h-8zm16 0h8v8h-8zm8 0h8v8h-8zm32 0h8v8h-8zm8 0h8v8h-8zm8 0h8v8h-8zm8 0h8v8h-8zm8 0h8v8h-8zm-120 8h8v8h-8zm8 0h8v8h-8zm8 0h8v8h-8zm8 0h8v8h-8zm24 0h8v8h-8zm8 0h8v8h-8zm16 0h8v8h-8zm16 0h8v8h-8zm24 0h8v8h-8zm8 0h8v8h-8zm-96 8h8v8h-8zm8 0h8v8h-8zm8 0h8v8h-8zm16 0h8v8h-8zm32 0h8v8h-8zm8 0h8v8h-8zm16 0h8v8h-8zm8 0h8v8h-8zm-128 8h8v8h-8zm8 0h8v8h-8zm16 0h8v8h-8zm24 0h8v8h-8zm16 0h8v8h-8zm8 0h8v8h-8zm8 0h8v8h-8zm8 0h8v8h-8zm8 0h8v8h-8zm24 0h8v8h-8zm8 0h8v8h-8zm-120 8h8v8h-8zm16 0h8v8h-8zm40 0h8v8h-8zm8 0h8v8h-8zm24 0h8v8h-8zm16 0h8v8h-8zm-112 8h8v8h-8zm16 0h8v8h-8zm24 0h8v8h-8zm16 0h8v8h-8zm32 0h8v8h-8zm8 0h8v8h-8zm8 0h8v8h-8zm24 0h8v8h-8zm-120 8h8v8h-8zm16 0h8v8h-8zm32 0h8v8h-8zm8 0h8v8h-8zm16 0h8v8h-8zm16 0h8v8h-8zm8 0h8v8h-8zm16 0h8v8h-8zm-120 8h8v8h-8zm8 0h8v8h-8zm24 0h8v8h-8zm24 0h8v8h-8zm8 0h8v8h-8zm24 0h8v8h-8zm32 0h8v8h-8zm8 0h8v8h-8z"/><path fill="none" d="M24 24h40v40H24z"/><path d="M64 16H16v56h56V16h-8zm0 48H24V24h40v40z"/><path fill="none" d="M168 24h40v40h-40z"/><path d="M208 16h-48v56h56V16h-8zm0 48h-40V24h40v40z"/><path fill="none" d="M24 168h40v40H24z"/><path d="M64 160H16v56h56v-56h-8zm0 48H24v-40h40v40zM32 32h24v24H32zm144 0h24v24h-24z"/><path d="M32 176h24v24H32z"/></svg>